<?xml version="1.0" encoding="utf-8"?>
<!-- Generator: Adobe Illustrator 26.0.0, SVG Export Plug-In . SVG Version: 6.00 Build 0)  -->
<svg version="1.1" id="Layer_1" xmlns="http://www.w3.org/2000/svg" xmlns:xlink="http://www.w3.org/1999/xlink" x="0px" y="0px"
	 viewBox="0 0 432 288" style="enable-background:new 0 0 432 288;" xml:space="preserve">
<style type="text/css">
	.st0{fill:none;}
	.st1{fill:#FFFFFF;}
	.st2{clip-path:url(#SVGID_00000122717071898605022510000016244724521490110370_);fill:#98BBD3;}
	.st3{clip-path:url(#SVGID_00000073001404064776271780000005922305086801841036_);fill:#7DA9C7;}
	.st4{clip-path:url(#SVGID_00000081626729219126484100000011039464984712769941_);fill:#6296BB;}
	.st5{clip-path:url(#SVGID_00000085238561611078924480000002765602989975095961_);fill:#4884AF;}
	.st6{clip-path:url(#SVGID_00000131357486139091592850000017792601451742442635_);fill:#436F90;}
	.st7{clip-path:url(#SVGID_00000029011817867402499470000006288033740754935436_);fill:#3D5B70;}
	.st8{clip-path:url(#SVGID_00000175284776529586919760000012021285965298532234_);fill:#384751;}
	.st9{stroke:#000000;stroke-width:0.8;stroke-linejoin:round;}
	
		.st10{clip-path:url(#SVGID_00000159432693790527413050000009880778732018176644_);fill:none;stroke:#424242;stroke-width:2.7;stroke-linecap:square;stroke-linejoin:round;}
	
		.st11{clip-path:url(#SVGID_00000160169625161595869010000005908918098454011322_);fill:none;stroke:#424242;stroke-width:2.7;stroke-linecap:square;stroke-linejoin:round;}
	
		.st12{clip-path:url(#SVGID_00000080929525259523789090000006108634290411497600_);fill:none;stroke:#424242;stroke-width:2.7;stroke-linecap:square;stroke-linejoin:round;}
	
		.st13{clip-path:url(#SVGID_00000134950140952141142160000018226602802037473176_);fill:none;stroke:#424242;stroke-width:2.7;stroke-linecap:square;stroke-linejoin:round;}
	
		.st14{clip-path:url(#SVGID_00000057831885259603322730000013249038888804300950_);fill:none;stroke:#424242;stroke-width:2.7;stroke-linecap:square;stroke-linejoin:round;}
	
		.st15{clip-path:url(#SVGID_00000042696408923851249330000017304457302468283549_);fill:none;stroke:#424242;stroke-width:2.7;stroke-linecap:square;stroke-linejoin:round;}
	
		.st16{clip-path:url(#SVGID_00000086686067192151691500000016585173530169898120_);fill:none;stroke:#424242;stroke-width:2.7;stroke-linecap:square;stroke-linejoin:round;}
	.st17{fill:none;stroke:#000000;stroke-width:0.8;stroke-linecap:square;}
</style>
<g id="figure_1">
	<g id="patch_1">
		<path class="st0" d="M8.2,284.1h432v-288H8.2V284.1z"/>
	</g>
	<g id="axes_1">
		<g id="patch_2">
			<path class="st1" d="M62.2,248.1H397V30.7H62.2V248.1z"/>
		</g>
		<g id="patch_3">
			<g>
				<defs>
					<rect id="SVGID_1_" x="62.2" y="30.7" width="334.8" height="217.4"/>
				</defs>
				<clipPath id="SVGID_00000180351683218698921850000012404934748721888649_">
					<use xlink:href="#SVGID_1_"  style="overflow:visible;"/>
				</clipPath>
				<path style="clip-path:url(#SVGID_00000180351683218698921850000012404934748721888649_);fill:#98BBD3;" d="M67,248.1h38.3
					v-23.3H67V248.1z"/>
			</g>
		</g>
		<g id="patch_4">
			<g>
				<defs>
					<rect id="SVGID_00000021099860587812881820000005487251211329794197_" x="62.2" y="30.7" width="334.8" height="217.4"/>
				</defs>
				<clipPath id="SVGID_00000160886262423916691890000009932993489387111598_">
					<use xlink:href="#SVGID_00000021099860587812881820000005487251211329794197_"  style="overflow:visible;"/>
				</clipPath>
				<path style="clip-path:url(#SVGID_00000160886262423916691890000009932993489387111598_);fill:#7DA9C7;" d="M114.8,248.1H153
					v-35.4h-38.3V248.1z"/>
			</g>
		</g>
		<g id="patch_5">
			<g>
				<defs>
					<rect id="SVGID_00000065072699750831159750000011888082855119255192_" x="62.2" y="30.7" width="334.8" height="217.4"/>
				</defs>
				<clipPath id="SVGID_00000099621181294507224370000005972810772516629156_">
					<use xlink:href="#SVGID_00000065072699750831159750000011888082855119255192_"  style="overflow:visible;"/>
				</clipPath>
				<path style="clip-path:url(#SVGID_00000099621181294507224370000005972810772516629156_);fill:#6296BB;" d="M162.6,248.1h38.3
					v-51.5h-38.3V248.1z"/>
			</g>
		</g>
		<g id="patch_6">
			<g>
				<defs>
					<rect id="SVGID_00000088835533627179209630000002263793282194212282_" x="62.2" y="30.7" width="334.8" height="217.4"/>
				</defs>
				<clipPath id="SVGID_00000142875953292445834510000000829016948435792040_">
					<use xlink:href="#SVGID_00000088835533627179209630000002263793282194212282_"  style="overflow:visible;"/>
				</clipPath>
				<path style="clip-path:url(#SVGID_00000142875953292445834510000000829016948435792040_);fill:#4884AF;" d="M210.4,248.1h38.3
					v-70.8h-38.3V248.1z"/>
			</g>
		</g>
		<g id="patch_7">
			<g>
				<defs>
					<rect id="SVGID_00000144335181300177238260000001132858151019096469_" x="62.2" y="30.7" width="334.8" height="217.4"/>
				</defs>
				<clipPath id="SVGID_00000134244858523515499020000009921008483924891577_">
					<use xlink:href="#SVGID_00000144335181300177238260000001132858151019096469_"  style="overflow:visible;"/>
				</clipPath>
				<path style="clip-path:url(#SVGID_00000134244858523515499020000009921008483924891577_);fill:#436F90;" d="M258.3,248.1h38.3
					V144.1h-38.3V248.1z"/>
			</g>
		</g>
		<g id="patch_8">
			<g>
				<defs>
					<rect id="SVGID_00000107561960792143439130000012024445035260855483_" x="62.2" y="30.7" width="334.8" height="217.4"/>
				</defs>
				<clipPath id="SVGID_00000080200926821603491190000013670873520939265966_">
					<use xlink:href="#SVGID_00000107561960792143439130000012024445035260855483_"  style="overflow:visible;"/>
				</clipPath>
				<path style="clip-path:url(#SVGID_00000080200926821603491190000013670873520939265966_);fill:#3D5B70;" d="M306.1,248.1h38.3
					V101.2h-38.3V248.1z"/>
			</g>
		</g>
		<g id="patch_9">
			<g>
				<defs>
					<rect id="SVGID_00000029017312890386869940000007843206057372872126_" x="62.2" y="30.7" width="334.8" height="217.4"/>
				</defs>
				<clipPath id="SVGID_00000157294866735915606690000006487347729245915016_">
					<use xlink:href="#SVGID_00000029017312890386869940000007843206057372872126_"  style="overflow:visible;"/>
				</clipPath>
				<path style="clip-path:url(#SVGID_00000157294866735915606690000006487347729245915016_);fill:#384751;" d="M353.9,248.1h38.3
					V49.3h-38.3V248.1z"/>
			</g>
		</g>
		<g id="matplotlib.axis_1">
			<g id="xtick_1">
				<g id="line2d_1">
					<g>
						<g>
							<path id="mcf154a76dd" class="st9" d="M86.1,248.1v3.5"/>
						</g>
					</g>
				</g>
				<g id="text_1">
					<g transform="translate(74.733036 266.598437)scale(0.1 -0.1)">
						<g>
							<path id="DejaVuSans-34" d="M119.5,103.1L94.6,64.1h24.9V103.1z M116.9,111.7h12.4V64.1h10.4v-8.2h-10.4V38.8h-9.8v17.2H86.6
								v9.5L116.9,111.7z"/>
						</g>
					</g>
				</g>
			</g>
			<g id="xtick_2">
				<g id="line2d_2">
					<g>
						<g>
							<path id="mcf154a76dd_00000000218599725937336040000015129808668310885538_" class="st9" d="M133.9,248.1v3.5"/>
						</g>
					</g>
				</g>
				<g id="text_2">
					<g transform="translate(122.561607 266.598437)scale(0.1 -0.1)">
						<g>
							<path id="DejaVuSans-35" d="M92.5,111.7h38.7v-8.3h-29.7V85.5c1.4,0.5,2.9,0.9,4.3,1.1c1.4,0.2,2.9,0.4,4.3,0.4
								c8.1,0,14.6-2.2,19.3-6.7c4.8-4.5,7.1-10.5,7.1-18.1c0-7.8-2.4-13.9-7.3-18.3c-4.9-4.3-11.8-6.5-20.7-6.5
								c-3.1,0-6.2,0.3-9.4,0.8c-3.2,0.5-6.4,1.3-9.8,2.3v9.9c2.9-1.6,6-2.8,9.1-3.6s6.4-1.2,9.9-1.2c5.6,0,10.1,1.5,13.4,4.4
								c3.3,3,4.9,7,4.9,12.1c0,5.1-1.6,9.1-4.9,12c-3.3,3-7.7,4.5-13.4,4.5c-2.6,0-5.3-0.3-7.9-0.9c-2.6-0.6-5.3-1.5-8-2.7V111.7z"
								/>
						</g>
					</g>
				</g>
			</g>
			<g id="xtick_3">
				<g id="line2d_3">
					<g>
						<g>
							<path id="mcf154a76dd_00000012439888251037415300000003598160034323466170_" class="st9" d="M181.7,248.1v3.5"/>
						</g>
					</g>
				</g>
				<g id="text_3">
					<g transform="translate(170.390179 266.598437)scale(0.1 -0.1)">
						<g>
							<path id="DejaVuSans-36" d="M114.7,79.1c-4.4,0-7.9-1.5-10.5-4.5c-2.6-3-3.9-7.2-3.9-12.4c0-5.2,1.3-9.4,3.9-12.4
								c2.6-3,6.1-4.6,10.5-4.6c4.4,0,7.9,1.5,10.5,4.6c2.6,3.1,3.9,7.2,3.9,12.4c0,5.3-1.3,9.4-3.9,12.4
								C122.7,77.6,119.1,79.1,114.7,79.1z M134.3,110.1v-9c-2.5,1.2-5,2.1-7.5,2.7c-2.5,0.6-5,0.9-7.5,0.9
								c-6.5,0-11.5-2.2-14.9-6.6c-3.4-4.4-5.4-11-5.9-19.9c1.9,2.8,4.3,5,7.2,6.5c2.9,1.5,6.1,2.3,9.6,2.3c7.3,0,13.1-2.2,17.4-6.7
								c4.2-4.4,6.4-10.5,6.4-18.1c0-7.5-2.2-13.5-6.6-18c-4.4-4.5-10.3-6.8-17.7-6.8c-8.4,0-14.9,3.2-19.3,9.7
								c-4.5,6.5-6.7,15.8-6.7,28.1c0,11.5,2.7,20.7,8.2,27.6c5.5,6.9,12.8,10.3,22,10.3c2.5,0,5-0.2,7.5-0.7S131.6,111,134.3,110.1
								z"/>
						</g>
					</g>
				</g>
			</g>
			<g id="xtick_4">
				<g id="line2d_4">
					<g>
						<g>
							<path id="mcf154a76dd_00000132798484714514872420000009656158154476176309_" class="st9" d="M229.6,248.1v3.5"/>
						</g>
					</g>
				</g>
				<g id="text_4">
					<g transform="translate(218.21875 266.598437)scale(0.1 -0.1)">
						<g>
							<path id="DejaVuSans-37" d="M89.9,111.7h46.9v-4.2l-26.5-68.7H100l24.9,64.6h-35V111.7z"/>
						</g>
					</g>
				</g>
			</g>
			<g id="xtick_5">
				<g id="line2d_5">
					<g>
						<g>
							<path id="mcf154a76dd_00000179628609938256342050000007184316881795057311_" class="st9" d="M277.4,248.1v3.5"/>
						</g>
					</g>
				</g>
				<g id="text_5">
					<g transform="translate(266.047321 266.598437)scale(0.1 -0.1)">
						<g>
							<path id="DejaVuSans-38" d="M113.5,73.4c-4.7,0-8.4-1.3-11.1-3.8c-2.7-2.5-4-6-4-10.3c0-4.4,1.3-7.8,4-10.4
								c2.7-2.5,6.4-3.8,11.1-3.8s8.4,1.3,11.1,3.8c2.7,2.5,4.1,6,4.1,10.3c0,4.4-1.3,7.8-4,10.3C121.9,72.1,118.2,73.4,113.5,73.4z
								 M103.6,77.6c-4.2,1-7.5,3-9.9,5.9c-2.4,2.9-3.5,6.4-3.5,10.6c0,5.8,2.1,10.4,6.2,13.8c4.2,3.4,9.8,5.1,17.1,5.1
								c7.3,0,13-1.7,17.1-5.1c4.1-3.4,6.2-8,6.2-13.8c0-4.2-1.2-7.7-3.5-10.6c-2.4-2.9-5.6-4.9-9.8-5.9c4.8-1.1,8.4-3.3,11.1-6.5
								c2.7-3.2,4-7.2,4-11.8c0-7.1-2.2-12.5-6.5-16.3c-4.3-3.8-10.5-5.7-18.5-5.7c-8,0-14.2,1.9-18.5,5.7
								c-4.3,3.8-6.5,9.2-6.5,16.3c0,4.6,1.3,8.6,4,11.8C95.2,74.3,98.9,76.5,103.6,77.6z M100,93.1c0-3.8,1.2-6.7,3.5-8.8
								c2.4-2.1,5.7-3.2,9.9-3.2c4.2,0,7.6,1.1,9.9,3.2c2.4,2.1,3.6,5.1,3.6,8.8c0,3.8-1.2,6.7-3.6,8.8c-2.4,2.1-5.7,3.2-9.9,3.2
								c-4.3,0-7.6-1.1-9.9-3.2C101.2,99.9,100,96.9,100,93.1z"/>
						</g>
					</g>
				</g>
			</g>
			<g id="xtick_6">
				<g id="line2d_6">
					<g>
						<g>
							<path id="mcf154a76dd_00000014614824101798504820000008824658160481456300_" class="st9" d="M325.2,248.1v3.5"/>
						</g>
					</g>
				</g>
				<g id="text_6">
					<g transform="translate(313.875893 266.598437)scale(0.1 -0.1)">
						<g>
							<path id="DejaVuSans-39" d="M92.7,40.3v9c2.5-1.2,5-2.1,7.5-2.7c2.5-0.6,5-0.9,7.5-0.9c6.5,0,11.5,2.2,14.9,6.6
								c3.4,4.4,5.4,11,5.9,20c-1.9-2.8-4.3-5-7.2-6.5c-2.9-1.5-6.1-2.3-9.6-2.3c-7.3,0-13.1,2.2-17.3,6.6
								C90.1,74.5,88,80.5,88,88.2c0,7.5,2.2,13.5,6.6,18c4.4,4.5,10.3,6.8,17.7,6.8c8.4,0,14.9-3.2,19.3-9.7
								c4.4-6.5,6.7-15.8,6.7-28.1c0-11.5-2.7-20.7-8.2-27.5c-5.4-6.9-12.8-10.3-22-10.3c-2.5,0-5,0.2-7.5,0.7
								C98.1,38.6,95.4,39.3,92.7,40.3z M112.3,71.2c4.4,0,7.9,1.5,10.5,4.5c2.6,3,3.9,7.2,3.9,12.5c0,5.2-1.3,9.4-3.9,12.4
								c-2.6,3-6.1,4.6-10.5,4.6c-4.4,0-7.9-1.5-10.5-4.6c-2.6-3-3.9-7.2-3.9-12.4c0-5.3,1.3-9.4,3.9-12.5
								C104.4,72.7,107.9,71.2,112.3,71.2z"/>
						</g>
					</g>
				</g>
			</g>
			<g id="xtick_7">
				<g id="line2d_7">
					<g>
						<g>
							<path id="mcf154a76dd_00000059303272519156388240000009219017688242642858_" class="st9" d="M373.1,248.1v3.5"/>
						</g>
					</g>
				</g>
				<g id="text_7">
					<g transform="translate(358.523214 266.598437)scale(0.1 -0.1)">
						<g>
							<path id="DejaVuSans-31" d="M94.1,47.1h16.1v55.6l-17.5-3.5v9l17.4,3.5h9.9V47.1h16.1v-8.3h-42V47.1z"/>
						</g>
						<g>
							<path id="DejaVuSans-30" d="M177.1,105.2c-5.1,0-8.9-2.5-11.5-7.5c-2.6-5-3.8-12.5-3.8-22.5c0-10,1.3-17.5,3.8-22.5
								c2.6-5,6.4-7.5,11.5-7.5c5.1,0,8.9,2.5,11.5,7.5c2.6,5,3.8,12.5,3.8,22.5c0,10-1.3,17.5-3.8,22.5
								C186.1,102.7,182.2,105.2,177.1,105.2z M177.1,113c8.2,0,14.4-3.2,18.7-9.7c4.3-6.5,6.5-15.8,6.5-28.1
								c0-12.3-2.2-21.6-6.5-28.1c-4.3-6.5-10.6-9.7-18.7-9.7c-8.2,0-14.4,3.2-18.7,9.7c-4.3,6.5-6.5,15.8-6.5,28.1
								c0,12.3,2.2,21.7,6.5,28.1C162.7,109.7,168.9,113,177.1,113z"/>
						</g>
					</g>
				</g>
			</g>
			<g id="text_8">
				<g transform="translate(202.875 280.276563)scale(0.1 -0.1)">
					<g>
						<path id="DejaVuSans-68" d="M136.6,71.8v-33h-9v32.7c0,5.2-1,9-3,11.6c-2,2.6-5,3.9-9.1,3.9c-4.9,0-8.7-1.5-11.5-4.6
							c-2.8-3.1-4.2-7.3-4.2-12.6V38.8h-9v76h9V84.9c2.2,3.3,4.7,5.8,7.6,7.4c2.9,1.6,6.3,2.4,10.1,2.4c6.3,0,11-1.9,14.3-5.8
							C135,85,136.6,79.3,136.6,71.8z"/>
					</g>
					<g>
						<path id="DejaVuSans-6f" d="M175.7,87.1c-4.8,0-8.6-1.9-11.4-5.6c-2.8-3.8-4.2-8.9-4.2-15.5s1.4-11.7,4.2-15.5
							c2.8-3.8,6.6-5.6,11.5-5.6c4.8,0,8.6,1.9,11.4,5.7c2.8,3.8,4.2,8.9,4.2,15.4c0,6.5-1.4,11.6-4.2,15.4
							C184.3,85.2,180.5,87.1,175.7,87.1z M175.7,94.8c7.8,0,13.9-2.5,18.4-7.6c4.5-5.1,6.7-12.1,6.7-21.1c0-8.9-2.2-16-6.7-21.1
							c-4.5-5.1-10.6-7.6-18.4-7.6c-7.8,0-14,2.5-18.4,7.6c-4.4,5.1-6.7,12.1-6.7,21.1c0,9,2.2,16,6.7,21.1
							C161.7,92.2,167.8,94.8,175.7,94.8z"/>
					</g>
					<g>
						<path id="DejaVuSans-72" d="M247.4,85.1c-1,0.6-2.1,1-3.3,1.3c-1.2,0.3-2.5,0.4-3.9,0.4c-5.1,0-9-1.7-11.7-5
							c-2.7-3.3-4.1-8-4.1-14.2V38.8h-9v54.7h9v-8.5c1.9,3.3,4.4,5.8,7.4,7.4c3,1.6,6.7,2.4,11,2.4c0.6,0,1.3,0,2-0.1
							c0.8-0.1,1.6-0.2,2.5-0.4L247.4,85.1z"/>
					</g>
					<g>
						<path id="DejaVuSans-69" d="M256.8,93.4h9V38.8h-9V93.4z M256.8,114.7h9v-11.4h-9V114.7z"/>
					</g>
					<g>
						<path id="DejaVuSans-7a" d="M280.7,93.4h42.7v-8.2l-33.8-39.3h33.8v-7.2h-43.9V47l33.8,39.3h-32.6V93.4z"/>
					</g>
					<g>
						<path id="DejaVuSans-6f_00000127016778919207582540000013783295417746735542_" d="M358.3,87.1c-4.8,0-8.6-1.9-11.4-5.6
							c-2.8-3.8-4.2-8.9-4.2-15.5s1.4-11.7,4.2-15.5c2.8-3.8,6.6-5.6,11.5-5.6c4.8,0,8.6,1.9,11.4,5.7c2.8,3.8,4.2,8.9,4.2,15.4
							c0,6.5-1.4,11.6-4.2,15.4C366.8,85.2,363.1,87.1,358.3,87.1z M358.3,94.8c7.8,0,13.9-2.5,18.4-7.6c4.5-5.1,6.7-12.1,6.7-21.1
							c0-8.9-2.2-16-6.7-21.1c-4.5-5.1-10.6-7.6-18.4-7.6c-7.8,0-14,2.5-18.4,7.6c-4.4,5.1-6.7,12.1-6.7,21.1c0,9,2.2,16,6.7,21.1
							C344.3,92.2,350.4,94.8,358.3,94.8z"/>
					</g>
					<g>
						<path id="DejaVuSans-6e" d="M443.7,71.8v-33h-9v32.7c0,5.2-1,9-3,11.6c-2,2.6-5,3.9-9.1,3.9c-4.9,0-8.7-1.5-11.5-4.6
							c-2.8-3.1-4.2-7.3-4.2-12.6V38.8h-9v54.7h9v-8.5c2.2,3.3,4.7,5.8,7.6,7.4c2.9,1.6,6.3,2.4,10.1,2.4c6.3,0,11-1.9,14.2-5.8
							C442.1,85,443.7,79.3,443.7,71.8z"/>
					</g>
				</g>
			</g>
		</g>
		<g id="matplotlib.axis_2">
			<g id="ytick_1">
				<g id="line2d_8">
					<g>
						<g>
							<path id="m7ae832732f" class="st9" d="M62.2,248.1h-3.5"/>
						</g>
					</g>
				</g>
				<g id="text_9">
					<g transform="translate(31.096875 255.799219)scale(0.1 -0.1)">
						<g>
							<path id="DejaVuSans-30_00000009577978067321735750000015950600828264119965_" d="M113.5,105.2c-5.1,0-8.9-2.5-11.5-7.5
								c-2.6-5-3.8-12.5-3.8-22.5c0-10,1.3-17.5,3.8-22.5c2.6-5,6.4-7.5,11.5-7.5c5.1,0,8.9,2.5,11.5,7.5c2.6,5,3.8,12.5,3.8,22.5
								c0,10-1.3,17.5-3.8,22.5C122.4,102.7,118.6,105.2,113.5,105.2z M113.5,113c8.2,0,14.4-3.2,18.7-9.7
								c4.3-6.5,6.5-15.8,6.5-28.1c0-12.3-2.2-21.6-6.5-28.1c-4.3-6.5-10.6-9.7-18.7-9.7c-8.2,0-14.4,3.2-18.7,9.7
								c-4.3,6.5-6.5,15.8-6.5,28.1c0,12.3,2.2,21.7,6.5,28.1C99.1,109.7,105.3,113,113.5,113z"/>
						</g>
						<g>
							<path id="DejaVuSans-2e" d="M156,51.2h10.3V38.8H156V51.2z"/>
						</g>
						<g>
							<path id="DejaVuSans-30_00000085236743785398738770000010704615954177984161_" d="M208.9,105.2c-5.1,0-8.9-2.5-11.5-7.5
								c-2.6-5-3.8-12.5-3.8-22.5c0-10,1.3-17.5,3.8-22.5c2.6-5,6.4-7.5,11.5-7.5c5.1,0,8.9,2.5,11.5,7.5c2.6,5,3.8,12.5,3.8,22.5
								c0,10-1.3,17.5-3.8,22.5C217.8,102.7,214,105.2,208.9,105.2z M208.9,113c8.2,0,14.4-3.2,18.7-9.7c4.3-6.5,6.5-15.8,6.5-28.1
								c0-12.3-2.2-21.6-6.5-28.1c-4.3-6.5-10.6-9.7-18.7-9.7c-8.2,0-14.4,3.2-18.7,9.7c-4.3,6.5-6.5,15.8-6.5,28.1
								c0,12.3,2.2,21.7,6.5,28.1C194.5,109.7,200.7,113,208.9,113z"/>
						</g>
					</g>
				</g>
			</g>
			<g id="ytick_2">
				<g id="line2d_9">
					<g>
						<g>
							<path id="m7ae832732f_00000170969882302725609990000008260116041579003265_" class="st9" d="M62.2,212h-3.5"/>
						</g>
					</g>
				</g>
				<g id="text_10">
					<g transform="translate(31.096875 219.641178)scale(0.1 -0.1)">
						<g>
							<path id="DejaVuSans-30_00000060750711915106834580000010635805731605669762_" d="M113.5,105.2c-5.1,0-8.9-2.5-11.5-7.5
								c-2.6-5-3.8-12.5-3.8-22.5c0-10,1.3-17.5,3.8-22.5c2.6-5,6.4-7.5,11.5-7.5c5.1,0,8.9,2.5,11.5,7.5c2.6,5,3.8,12.5,3.8,22.5
								c0,10-1.3,17.5-3.8,22.5C122.4,102.7,118.6,105.2,113.5,105.2z M113.5,113c8.2,0,14.4-3.2,18.7-9.7
								c4.3-6.5,6.5-15.8,6.5-28.1c0-12.3-2.2-21.6-6.5-28.1c-4.3-6.5-10.6-9.7-18.7-9.7c-8.2,0-14.4,3.2-18.7,9.7
								c-4.3,6.5-6.5,15.8-6.5,28.1c0,12.3,2.2,21.7,6.5,28.1C99.1,109.7,105.3,113,113.5,113z"/>
						</g>
						<g>
							<path id="DejaVuSans-2e_00000049925801710200583590000016075032087582215101_" d="M156,51.2h10.3V38.8H156V51.2z"/>
						</g>
						<g>
							<path id="DejaVuSans-32" d="M196.3,47.1h34.4v-8.3h-46.3v8.3c3.7,3.9,8.8,9.1,15.3,15.6c6.5,6.5,10.5,10.7,12.2,12.6
								c3.2,3.5,5.4,6.5,6.6,9c1.3,2.5,1.9,4.9,1.9,7.2c0,3.9-1.4,7-4.1,9.5c-2.7,2.4-6.3,3.7-10.6,3.7c-3.1,0-6.4-0.5-9.8-1.6
								c-3.4-1.1-7.1-2.7-11-4.9v10c4,1.6,7.7,2.8,11.1,3.6c3.5,0.8,6.6,1.2,9.5,1.2c7.6,0,13.6-1.9,18.1-5.7
								c4.5-3.8,6.7-8.8,6.7-15.1c0-3-0.6-5.8-1.7-8.5c-1.1-2.7-3.2-5.8-6.1-9.5c-0.8-0.9-3.4-3.7-7.8-8.2
								C210.4,61.5,204.2,55.2,196.3,47.1z"/>
						</g>
					</g>
				</g>
			</g>
			<g id="ytick_3">
				<g id="line2d_10">
					<g>
						<g>
							<path id="m7ae832732f_00000090263892659612215310000016402252143529988514_" class="st9" d="M62.2,175.8h-3.5"/>
						</g>
					</g>
				</g>
				<g id="text_11">
					<g transform="translate(31.096875 183.483138)scale(0.1 -0.1)">
						<g>
							<path id="DejaVuSans-30_00000025402711709074821040000004795313779419712917_" d="M113.5,105.2c-5.1,0-8.9-2.5-11.5-7.5
								c-2.6-5-3.8-12.5-3.8-22.5c0-10,1.3-17.5,3.8-22.5c2.6-5,6.4-7.5,11.5-7.5c5.1,0,8.9,2.5,11.5,7.5c2.6,5,3.8,12.5,3.8,22.5
								c0,10-1.3,17.5-3.8,22.5C122.4,102.7,118.6,105.2,113.5,105.2z M113.5,113c8.2,0,14.4-3.2,18.7-9.7
								c4.3-6.5,6.5-15.8,6.5-28.1c0-12.3-2.2-21.6-6.5-28.1c-4.3-6.5-10.6-9.7-18.7-9.7c-8.2,0-14.4,3.2-18.7,9.7
								c-4.3,6.5-6.5,15.8-6.5,28.1c0,12.3,2.2,21.7,6.5,28.1C99.1,109.7,105.3,113,113.5,113z"/>
						</g>
						<g>
							<path id="DejaVuSans-2e_00000031929058998823173990000004102110527929220277_" d="M156,51.2h10.3V38.8H156V51.2z"/>
						</g>
						<g>
							<path id="DejaVuSans-34_00000163764581306451810220000011802368044940891326_" d="M214.9,103.1L190,64.1h24.9V103.1z
								 M212.3,111.7h12.4V64.1h10.4v-8.2h-10.4V38.8h-9.8v17.2H182v9.5L212.3,111.7z"/>
						</g>
					</g>
				</g>
			</g>
			<g id="ytick_4">
				<g id="line2d_11">
					<g>
						<g>
							<path id="m7ae832732f_00000167390319372749078540000000189667058323402899_" class="st9" d="M62.2,139.7h-3.5"/>
						</g>
					</g>
				</g>
				<g id="text_12">
					<g transform="translate(31.096875 147.325098)scale(0.1 -0.1)">
						<g>
							<path id="DejaVuSans-30_00000146476012021168540650000001189260254839745970_" d="M113.5,105.2c-5.1,0-8.9-2.5-11.5-7.5
								c-2.6-5-3.8-12.5-3.8-22.5c0-10,1.3-17.5,3.8-22.5c2.6-5,6.4-7.5,11.5-7.5c5.1,0,8.9,2.5,11.5,7.5c2.6,5,3.8,12.5,3.8,22.5
								c0,10-1.3,17.5-3.8,22.5C122.4,102.7,118.6,105.2,113.5,105.2z M113.5,113c8.2,0,14.4-3.2,18.7-9.7
								c4.3-6.5,6.5-15.8,6.5-28.1c0-12.3-2.2-21.6-6.5-28.1c-4.3-6.5-10.6-9.7-18.7-9.7c-8.2,0-14.4,3.2-18.7,9.7
								c-4.3,6.5-6.5,15.8-6.5,28.1c0,12.3,2.2,21.7,6.5,28.1C99.1,109.7,105.3,113,113.5,113z"/>
						</g>
						<g>
							<path id="DejaVuSans-2e_00000021108632444269474440000001910436698598068402_" d="M156,51.2h10.3V38.8H156V51.2z"/>
						</g>
						<g>
							<path id="DejaVuSans-36_00000132783654401195893540000001773712631080336812_" d="M210.1,79.1c-4.4,0-7.9-1.5-10.5-4.5
								c-2.6-3-3.9-7.2-3.9-12.4c0-5.2,1.3-9.4,3.9-12.4c2.6-3,6.1-4.6,10.5-4.6s7.9,1.5,10.5,4.6c2.6,3.1,3.9,7.2,3.9,12.4
								c0,5.3-1.3,9.4-3.9,12.4C218.1,77.6,214.6,79.1,210.1,79.1z M229.7,110.1v-9c-2.5,1.2-5,2.1-7.5,2.7c-2.5,0.6-5,0.9-7.5,0.9
								c-6.5,0-11.5-2.2-14.9-6.6c-3.4-4.4-5.4-11-5.9-19.9c1.9,2.8,4.3,5,7.2,6.5c2.9,1.5,6.1,2.3,9.6,2.3c7.3,0,13.1-2.2,17.4-6.7
								c4.2-4.4,6.4-10.5,6.4-18.1c0-7.5-2.2-13.5-6.6-18c-4.4-4.5-10.3-6.8-17.7-6.8c-8.4,0-14.9,3.2-19.3,9.7
								c-4.5,6.5-6.7,15.8-6.7,28.1c0,11.5,2.7,20.7,8.2,27.6c5.5,6.9,12.8,10.3,22,10.3c2.5,0,5-0.2,7.5-0.7S227,111,229.7,110.1z"
								/>
						</g>
					</g>
				</g>
			</g>
			<g id="ytick_5">
				<g id="line2d_12">
					<g>
						<g>
							<path id="m7ae832732f_00000075150230866953263750000001951028644410023871_" class="st9" d="M62.2,103.5h-3.5"/>
						</g>
					</g>
				</g>
				<g id="text_13">
					<g transform="translate(31.096875 111.167057)scale(0.1 -0.1)">
						<g>
							<path id="DejaVuSans-30_00000160910684432016590160000002989772717787271822_" d="M113.5,105.2c-5.1,0-8.9-2.5-11.5-7.5
								c-2.6-5-3.8-12.5-3.8-22.5c0-10,1.3-17.5,3.8-22.5c2.6-5,6.4-7.5,11.5-7.5c5.1,0,8.9,2.5,11.5,7.5c2.6,5,3.8,12.5,3.8,22.5
								c0,10-1.3,17.5-3.8,22.5C122.4,102.7,118.6,105.2,113.5,105.2z M113.5,113c8.2,0,14.4-3.2,18.7-9.7
								c4.3-6.5,6.5-15.8,6.5-28.1c0-12.3-2.2-21.6-6.5-28.1c-4.3-6.5-10.6-9.7-18.7-9.7c-8.2,0-14.4,3.2-18.7,9.7
								c-4.3,6.5-6.5,15.8-6.5,28.1c0,12.3,2.2,21.7,6.5,28.1C99.1,109.7,105.3,113,113.5,113z"/>
						</g>
						<g>
							<path id="DejaVuSans-2e_00000077312097379568592510000002341093541613792938_" d="M156,51.2h10.3V38.8H156V51.2z"/>
						</g>
						<g>
							<path id="DejaVuSans-38_00000140732764615143642470000011641041804550982542_" d="M208.9,73.4c-4.7,0-8.4-1.3-11.1-3.8
								c-2.7-2.5-4-6-4-10.3c0-4.4,1.3-7.8,4-10.4c2.7-2.5,6.4-3.8,11.1-3.8s8.4,1.3,11.1,3.8c2.7,2.5,4.1,6,4.1,10.3
								c0,4.4-1.3,7.8-4,10.3C217.3,72.1,213.6,73.4,208.9,73.4z M199,77.6c-4.2,1-7.5,3-9.9,5.9c-2.4,2.9-3.5,6.4-3.5,10.6
								c0,5.8,2.1,10.4,6.2,13.8c4.2,3.4,9.8,5.1,17.1,5.1c7.3,0,13-1.7,17.1-5.1s6.2-8,6.2-13.8c0-4.2-1.2-7.7-3.5-10.6
								c-2.4-2.9-5.6-4.9-9.8-5.9c4.8-1.1,8.4-3.3,11.1-6.5c2.7-3.2,4-7.2,4-11.8c0-7.1-2.2-12.5-6.5-16.3
								c-4.3-3.8-10.5-5.7-18.5-5.7c-8,0-14.2,1.9-18.5,5.7c-4.3,3.8-6.5,9.2-6.5,16.3c0,4.6,1.3,8.6,4,11.8
								C190.6,74.3,194.3,76.5,199,77.6z M195.4,93.1c0-3.8,1.2-6.7,3.5-8.8c2.4-2.1,5.7-3.2,9.9-3.2c4.2,0,7.6,1.1,9.9,3.2
								c2.4,2.1,3.6,5.1,3.6,8.8c0,3.8-1.2,6.7-3.6,8.8c-2.4,2.1-5.7,3.2-9.9,3.2c-4.3,0-7.6-1.1-9.9-3.2
								C196.6,99.9,195.4,96.9,195.4,93.1z"/>
						</g>
					</g>
				</g>
			</g>
			<g id="ytick_6">
				<g id="line2d_13">
					<g>
						<g>
							<path id="m7ae832732f_00000080191904072168973570000011482846675092179122_" class="st9" d="M62.2,67.3h-3.5"/>
						</g>
					</g>
				</g>
				<g id="text_14">
					<g transform="translate(31.096875 75.009017)scale(0.1 -0.1)">
						<g>
							<path id="DejaVuSans-31_00000136403689484052960930000017344367339921208713_" d="M94.1,47.1h16.1v55.6l-17.5-3.5v9l17.4,3.5
								h9.9V47.1h16.1v-8.3h-42V47.1z"/>
						</g>
						<g>
							<path id="DejaVuSans-2e_00000181084271039115078150000000483738337555560081_" d="M156,51.2h10.3V38.8H156V51.2z"/>
						</g>
						<g>
							<path id="DejaVuSans-30_00000000919862299610407240000006186585219485071272_" d="M208.9,105.2c-5.1,0-8.9-2.5-11.5-7.5
								c-2.6-5-3.8-12.5-3.8-22.5c0-10,1.3-17.5,3.8-22.5c2.6-5,6.4-7.5,11.5-7.5c5.1,0,8.9,2.5,11.5,7.5c2.6,5,3.8,12.5,3.8,22.5
								c0,10-1.3,17.5-3.8,22.5C217.8,102.7,214,105.2,208.9,105.2z M208.9,113c8.2,0,14.4-3.2,18.7-9.7c4.3-6.5,6.5-15.8,6.5-28.1
								c0-12.3-2.2-21.6-6.5-28.1c-4.3-6.5-10.6-9.7-18.7-9.7c-8.2,0-14.4,3.2-18.7,9.7c-4.3,6.5-6.5,15.8-6.5,28.1
								c0,12.3,2.2,21.7,6.5,28.1C194.5,109.7,200.7,113,208.9,113z"/>
						</g>
					</g>
				</g>
			</g>
			<g id="ytick_7">
				<g id="line2d_14">
					<g>
						<g>
							<path id="m7ae832732f_00000066510225459180898580000005670516396902058423_" class="st9" d="M62.2,31.2h-3.5"/>
						</g>
					</g>
				</g>
				<g id="text_15">
					<g transform="translate(31.096875 38.850976)scale(0.1 -0.1)">
						<g>
							<path id="DejaVuSans-31_00000073690463504866445950000005778567433964990890_" d="M94.1,47.1h16.1v55.6l-17.5-3.5v9l17.4,3.5
								h9.9V47.1h16.1v-8.3h-42V47.1z"/>
						</g>
						<g>
							<path id="DejaVuSans-2e_00000145038788698997758220000005259691774104573570_" d="M156,51.2h10.3V38.8H156V51.2z"/>
						</g>
						<g>
							<path id="DejaVuSans-32_00000127004580409410105420000001483733828056626572_" d="M196.3,47.1h34.4v-8.3h-46.3v8.3
								c3.7,3.9,8.8,9.1,15.3,15.6c6.5,6.5,10.5,10.7,12.2,12.6c3.2,3.5,5.4,6.5,6.6,9c1.3,2.5,1.9,4.9,1.9,7.2c0,3.9-1.4,7-4.1,9.5
								c-2.7,2.4-6.3,3.7-10.6,3.7c-3.1,0-6.4-0.5-9.8-1.6c-3.4-1.1-7.1-2.7-11-4.9v10c4,1.6,7.7,2.8,11.1,3.6
								c3.5,0.8,6.6,1.2,9.5,1.2c7.6,0,13.6-1.9,18.1-5.7c4.5-3.8,6.7-8.8,6.7-15.1c0-3-0.6-5.8-1.7-8.5c-1.1-2.7-3.2-5.8-6.1-9.5
								c-0.8-0.9-3.4-3.7-7.8-8.2C210.4,61.5,204.2,55.2,196.3,47.1z"/>
						</g>
					</g>
				</g>
			</g>
			<g id="text_16">
				<g transform="translate(25.017187 154.576094)rotate(-90)scale(0.1 -0.1)">
					<g>
						<path id="DejaVuSans-74" d="M57.1-11.5V-27h18.5v-7H57.1v-29.7c0-4.5,0.6-7.3,1.8-8.6c1.2-1.3,3.7-1.9,7.5-1.9h9.2v-7.5h-9.2
							c-6.9,0-11.7,1.3-14.4,3.9c-2.6,2.6-4,7.3-4,14.1V-34h-6.6v7H48v15.5H57.1z"/>
					</g>
					<g>
						<path id="DejaVuSans-69_00000036930067522335780120000016075923506953929624_" d="M87.4-27h9v-54.7h-9V-27z M87.4-5.7h9v-11.4
							h-9V-5.7z"/>
					</g>
					<g>
						<path id="DejaVuSans-6d" d="M157.7-37.5c2.2,4,4.9,7,8.1,8.9s6.8,2.9,11,2.9c5.7,0,10.1-2,13.2-6c3.1-4,4.6-9.6,4.6-17v-33h-9
							V-49c0,5.2-0.9,9.1-2.8,11.7c-1.9,2.5-4.7,3.8-8.5,3.8c-4.7,0-8.3-1.5-11-4.6c-2.7-3.1-4-7.3-4-12.6v-30.9h-9V-49
							c0,5.3-0.9,9.2-2.8,11.7c-1.9,2.5-4.7,3.8-8.6,3.8c-4.6,0-8.2-1.6-11-4.7c-2.7-3.1-4-7.3-4-12.6v-30.9h-9V-27h9v-8.5
							c2.1,3.4,4.5,5.8,7.4,7.4c2.9,1.6,6.3,2.4,10.2,2.4c4,0,7.4-1,10.1-3C154.4-30.7,156.4-33.7,157.7-37.5z"/>
					</g>
					<g>
						<path id="DejaVuSans-65" d="M259.4-52.1v-4.4H218c0.4-6.2,2.3-10.9,5.6-14.1c3.3-3.2,8-4.9,13.9-4.9c3.4,0,6.8,0.4,10,1.3
							c3.2,0.8,6.5,2.1,9.7,3.8v-8.5c-3.2-1.4-6.5-2.4-9.9-3.1c-3.4-0.7-6.8-1.1-10.3-1.1c-8.7,0-15.6,2.5-20.7,7.6
							c-5.1,5.1-7.6,12-7.6,20.6c0,8.9,2.4,16,7.2,21.3c4.8,5.3,11.4,7.9,19.6,7.9c7.4,0,13.2-2.4,17.5-7.1
							C257.2-37.5,259.4-44,259.4-52.1z M250.4-49.5c-0.1,4.9-1.4,8.8-4.1,11.8c-2.7,2.9-6.2,4.4-10.7,4.4c-5,0-9-1.4-12-4.2
							c-3-2.8-4.7-6.8-5.2-12L250.4-49.5z"/>
					</g>
				</g>
			</g>
		</g>
		<g id="line2d_15">
			<g>
				<defs>
					<rect id="SVGID_00000159429067985633737160000003901911007828545195_" x="62.2" y="30.7" width="334.8" height="217.4"/>
				</defs>
				<clipPath id="SVGID_00000099640448937070670440000003140171622433192866_">
					<use xlink:href="#SVGID_00000159429067985633737160000003901911007828545195_"  style="overflow:visible;"/>
				</clipPath>
				
					<path style="clip-path:url(#SVGID_00000099640448937070670440000003140171622433192866_);fill:none;stroke:#424242;stroke-width:2.7;stroke-linecap:square;stroke-linejoin:round;" d="
					M86.1,225.5V224"/>
			</g>
		</g>
		<g id="line2d_16">
			<g>
				<defs>
					<rect id="SVGID_00000075863186378157598940000017655450514857258165_" x="62.2" y="30.7" width="334.8" height="217.4"/>
				</defs>
				<clipPath id="SVGID_00000066517473052221296840000017583771638695004852_">
					<use xlink:href="#SVGID_00000075863186378157598940000017655450514857258165_"  style="overflow:visible;"/>
				</clipPath>
				
					<path style="clip-path:url(#SVGID_00000066517473052221296840000017583771638695004852_);fill:none;stroke:#424242;stroke-width:2.7;stroke-linecap:square;stroke-linejoin:round;" d="
					M133.9,213.8v-2.5"/>
			</g>
		</g>
		<g id="line2d_17">
			<g>
				<defs>
					<rect id="SVGID_00000144314557956942937010000018017581433673121709_" x="62.2" y="30.7" width="334.8" height="217.4"/>
				</defs>
				<clipPath id="SVGID_00000147177710021681776090000013848843951266265473_">
					<use xlink:href="#SVGID_00000144314557956942937010000018017581433673121709_"  style="overflow:visible;"/>
				</clipPath>
				
					<path style="clip-path:url(#SVGID_00000147177710021681776090000013848843951266265473_);fill:none;stroke:#424242;stroke-width:2.7;stroke-linecap:square;stroke-linejoin:round;" d="
					M181.7,197.9v-2.5"/>
			</g>
		</g>
		<g id="line2d_18">
			<g>
				<defs>
					<rect id="SVGID_00000152250285092473965550000000072880064952068271_" x="62.2" y="30.7" width="334.8" height="217.4"/>
				</defs>
				<clipPath id="SVGID_00000026874196844145204990000004518418171674426251_">
					<use xlink:href="#SVGID_00000152250285092473965550000000072880064952068271_"  style="overflow:visible;"/>
				</clipPath>
				
					<path style="clip-path:url(#SVGID_00000026874196844145204990000004518418171674426251_);fill:none;stroke:#424242;stroke-width:2.7;stroke-linecap:square;stroke-linejoin:round;" d="
					M229.6,179.2v-4"/>
			</g>
		</g>
		<g id="line2d_19">
			<g>
				<defs>
					<rect id="SVGID_00000002356356903375523460000009508135484643941524_" x="62.2" y="30.7" width="334.8" height="217.4"/>
				</defs>
				<clipPath id="SVGID_00000026862363600127229540000017353248316207475086_">
					<use xlink:href="#SVGID_00000002356356903375523460000009508135484643941524_"  style="overflow:visible;"/>
				</clipPath>
				
					<path style="clip-path:url(#SVGID_00000026862363600127229540000017353248316207475086_);fill:none;stroke:#424242;stroke-width:2.7;stroke-linecap:square;stroke-linejoin:round;" d="
					M277.4,147.6v-7.3"/>
			</g>
		</g>
		<g id="line2d_20">
			<g>
				<defs>
					<rect id="SVGID_00000098909243960749305730000016102675279105164203_" x="62.2" y="30.7" width="334.8" height="217.4"/>
				</defs>
				<clipPath id="SVGID_00000021102246508991480100000006342601504373746083_">
					<use xlink:href="#SVGID_00000098909243960749305730000016102675279105164203_"  style="overflow:visible;"/>
				</clipPath>
				
					<path style="clip-path:url(#SVGID_00000021102246508991480100000006342601504373746083_);fill:none;stroke:#424242;stroke-width:2.7;stroke-linecap:square;stroke-linejoin:round;" d="
					M325.2,107.2v-13"/>
			</g>
		</g>
		<g id="line2d_21">
			<g>
				<defs>
					<rect id="SVGID_00000013888572951899294990000016473056538009123506_" x="62.2" y="30.7" width="334.8" height="217.4"/>
				</defs>
				<clipPath id="SVGID_00000049944533356399200400000014393095064475476408_">
					<use xlink:href="#SVGID_00000013888572951899294990000016473056538009123506_"  style="overflow:visible;"/>
				</clipPath>
				
					<path style="clip-path:url(#SVGID_00000049944533356399200400000014393095064475476408_);fill:none;stroke:#424242;stroke-width:2.7;stroke-linecap:square;stroke-linejoin:round;" d="
					M373.1,57.7V41"/>
			</g>
		</g>
		<g id="patch_10">
			<path class="st17" d="M62.2,248.1V30.7"/>
		</g>
		<g id="patch_11">
			<path class="st17" d="M397,248.1V30.7"/>
		</g>
		<g id="patch_12">
			<path class="st17" d="M62.2,248.1H397"/>
		</g>
		<g id="patch_13">
			<path class="st17" d="M62.2,30.7H397"/>
		</g>
	</g>
</g>
</svg>
